<mxfile host="Electron" agent="Mozilla/5.0 (Windows NT 10.0; Win64; x64) AppleWebKit/537.36 (KHTML, like Gecko) draw.io/25.0.2 Chrome/128.0.6613.186 Electron/32.2.5 Safari/537.36" version="25.0.2">
  <diagram name="Seite-1" id="quzkMm1DqdE-asPBccsX">
    <mxGraphModel dx="2074" dy="1196" grid="1" gridSize="10" guides="1" tooltips="1" connect="1" arrows="1" fold="1" page="1" pageScale="1" pageWidth="1169" pageHeight="1654" math="0" shadow="0">
      <root>
        <mxCell id="0" />
        <mxCell id="1" parent="0" />
        <mxCell id="DBiFH9D20hZYpQDb068O-10" style="edgeStyle=orthogonalEdgeStyle;rounded=0;orthogonalLoop=1;jettySize=auto;html=1;entryX=0.5;entryY=0;entryDx=0;entryDy=0;" edge="1" parent="1" source="DBiFH9D20hZYpQDb068O-2" target="DBiFH9D20hZYpQDb068O-4">
          <mxGeometry relative="1" as="geometry" />
        </mxCell>
        <mxCell id="DBiFH9D20hZYpQDb068O-2" value="" style="verticalLabelPosition=bottom;verticalAlign=top;html=1;shape=hexagon;perimeter=hexagonPerimeter2;arcSize=6;size=0.17391304347826086;fillColor=#ffe6cc;strokeColor=#d79b00;" vertex="1" parent="1">
          <mxGeometry x="200" y="130" width="230" height="130" as="geometry" />
        </mxCell>
        <mxCell id="DBiFH9D20hZYpQDb068O-3" value="&lt;font style=&quot;font-size: 14px;&quot;&gt;On-Demand&lt;/font&gt;&lt;div&gt;&lt;font style=&quot;font-size: 14px;&quot;&gt;Host Check&lt;/font&gt;&lt;/div&gt;&lt;div&gt;&lt;font style=&quot;font-size: 14px;&quot;&gt;Needed&lt;/font&gt;&lt;/div&gt;" style="text;html=1;align=center;verticalAlign=middle;resizable=0;points=[];autosize=1;strokeColor=none;fillColor=none;" vertex="1" parent="1">
          <mxGeometry x="265" y="165" width="100" height="60" as="geometry" />
        </mxCell>
        <mxCell id="DBiFH9D20hZYpQDb068O-8" style="edgeStyle=orthogonalEdgeStyle;rounded=0;orthogonalLoop=1;jettySize=auto;html=1;entryX=0.5;entryY=0;entryDx=0;entryDy=0;" edge="1" parent="1" source="DBiFH9D20hZYpQDb068O-4" target="DBiFH9D20hZYpQDb068O-7">
          <mxGeometry relative="1" as="geometry" />
        </mxCell>
        <mxCell id="DBiFH9D20hZYpQDb068O-11" value="&lt;font style=&quot;font-size: 14px;&quot;&gt;Yes&lt;/font&gt;" style="edgeLabel;html=1;align=center;verticalAlign=middle;resizable=0;points=[];" vertex="1" connectable="0" parent="DBiFH9D20hZYpQDb068O-8">
          <mxGeometry x="0.2976" y="1" relative="1" as="geometry">
            <mxPoint as="offset" />
          </mxGeometry>
        </mxCell>
        <mxCell id="DBiFH9D20hZYpQDb068O-9" style="edgeStyle=orthogonalEdgeStyle;rounded=0;orthogonalLoop=1;jettySize=auto;html=1;entryX=0.5;entryY=0;entryDx=0;entryDy=0;" edge="1" parent="1" source="DBiFH9D20hZYpQDb068O-4" target="DBiFH9D20hZYpQDb068O-6">
          <mxGeometry relative="1" as="geometry" />
        </mxCell>
        <mxCell id="DBiFH9D20hZYpQDb068O-12" value="&lt;font style=&quot;font-size: 14px;&quot;&gt;No&lt;/font&gt;" style="edgeLabel;html=1;align=center;verticalAlign=middle;resizable=0;points=[];" vertex="1" connectable="0" parent="DBiFH9D20hZYpQDb068O-9">
          <mxGeometry x="-0.225" relative="1" as="geometry">
            <mxPoint as="offset" />
          </mxGeometry>
        </mxCell>
        <mxCell id="DBiFH9D20hZYpQDb068O-4" value="" style="verticalLabelPosition=bottom;verticalAlign=top;html=1;shape=hexagon;perimeter=hexagonPerimeter2;arcSize=6;size=0.5;fillColor=#ffe6cc;strokeColor=#d79b00;" vertex="1" parent="1">
          <mxGeometry x="210" y="320" width="210" height="130" as="geometry" />
        </mxCell>
        <mxCell id="DBiFH9D20hZYpQDb068O-5" value="&lt;font style=&quot;font-size: 14px;&quot;&gt;Last Check Time &amp;gt;=&lt;/font&gt;&lt;div&gt;&lt;font style=&quot;font-size: 14px;&quot;&gt;(Current Time - Cached&lt;/font&gt;&lt;/div&gt;&lt;div&gt;&lt;font style=&quot;font-size: 14px;&quot;&gt;Check Horizone)?)&lt;/font&gt;&lt;/div&gt;" style="text;html=1;align=center;verticalAlign=middle;resizable=0;points=[];autosize=1;strokeColor=none;fillColor=none;" vertex="1" parent="1">
          <mxGeometry x="230" y="355" width="170" height="60" as="geometry" />
        </mxCell>
        <mxCell id="DBiFH9D20hZYpQDb068O-6" value="&lt;font style=&quot;font-size: 14px;&quot;&gt;Execute Host&lt;/font&gt;&lt;div&gt;&lt;font style=&quot;font-size: 14px;&quot;&gt;Check via Plugin&lt;/font&gt;&lt;/div&gt;" style="rounded=1;whiteSpace=wrap;html=1;absoluteArcSize=1;arcSize=14;strokeWidth=2;fillColor=#ffe6cc;strokeColor=#d79b00;" vertex="1" parent="1">
          <mxGeometry x="265" y="530" width="100" height="100" as="geometry" />
        </mxCell>
        <mxCell id="DBiFH9D20hZYpQDb068O-7" value="&lt;font style=&quot;font-size: 14px;&quot;&gt;Use Cached&lt;/font&gt;&lt;div&gt;&lt;font style=&quot;font-size: 14px;&quot;&gt;(Last) Host Check Result&lt;/font&gt;&lt;/div&gt;" style="rounded=1;whiteSpace=wrap;html=1;absoluteArcSize=1;arcSize=14;strokeWidth=2;fillColor=#ffe6cc;strokeColor=#d79b00;" vertex="1" parent="1">
          <mxGeometry x="430" y="530" width="100" height="100" as="geometry" />
        </mxCell>
      </root>
    </mxGraphModel>
  </diagram>
</mxfile>
